<svg id="Capa_1" enable-background="new 0 0 510 510" height="512" viewBox="0 0 510 510" width="512" xmlns="http://www.w3.org/2000/svg" xmlns:xlink="http://www.w3.org/1999/xlink"><linearGradient id="lg1"><stop offset="0" stop-color="#ff637b"/><stop offset="1" stop-color="#f90217"/></linearGradient><linearGradient id="SVGID_1_" gradientUnits="userSpaceOnUse" x1="72.294" x2="431.299" xlink:href="#lg1" y1="77.444" y2="77.444"/><linearGradient id="SVGID_2_" gradientUnits="userSpaceOnUse" x1="344.172" x2="118.618" xlink:href="#lg1" y1="215.375" y2="-10.18"/><linearGradient id="lg2"><stop offset="0" stop-color="#ffd833"/><stop offset="1" stop-color="#f2b631"/></linearGradient><linearGradient id="SVGID_3_" gradientUnits="userSpaceOnUse" x1="6.064" x2="144.732" xlink:href="#lg2" y1="186.875" y2="325.543"/><linearGradient id="SVGID_4_" gradientUnits="userSpaceOnUse" x1="176.242" x2="28.077" xlink:href="#lg2" y1="326.758" y2="178.593"/><linearGradient id="lg3"><stop offset="0" stop-color="#28a265"/><stop offset="1" stop-color="#28895e"/></linearGradient><linearGradient id="SVGID_5_" gradientUnits="userSpaceOnUse" x1="233.035" x2="310.406" xlink:href="#lg3" y1="402.965" y2="480.336"/><linearGradient id="SVGID_6_" gradientUnits="userSpaceOnUse" x1="353.841" x2="130.037" xlink:href="#lg3" y1="504.352" y2="280.548"/><linearGradient id="lg4"><stop offset="0" stop-color="#7faef4"/><stop offset="1" stop-color="#4c8df1"/></linearGradient><linearGradient id="SVGID_7_" gradientUnits="userSpaceOnUse" x1="363.984" x2="482.659" xlink:href="#lg4" y1="248.673" y2="367.348"/><linearGradient id="SVGID_8_" gradientUnits="userSpaceOnUse" x1="463.372" x2="309.306" xlink:href="#lg4" y1="406.198" y2="252.132"/><g><path d="m141.178 142.178c29.171-29.417 69.569-47.671 113.981-47.628 40.946.04 78.304 15.413 106.638 40.693 4.06 3.622 10.576 3.384 14.423-.463l51.983-51.983c4.233-4.233 4.116-11.15-.283-15.21-46.333-42.767-108.55-68.574-176.806-67.558-69.008 1.027-131.43 29.692-176.776 75.309-5.056 5.086.858 66.659.858 66.659s37.519 28.885 65.982.181z" fill="url(#SVGID_1_)"/><path d="m141.178 142.178c29.171-29.417 69.569-47.671 113.981-47.628 40.946.04 78.304 15.413 106.638 40.693 4.06 3.622 10.576 3.384 14.423-.463l29.831-29.831c-2.598-2.008-5.16-4.116-7.66-6.33-38.891-34.443-89.49-56.36-145.66-55.77-58.254.612-110.577 24.372-148.41 62.47-4.137 4.166-5.762 36.744-5.762 36.744s4.854-.439 42.619.115z" fill="url(#SVGID_2_)"/><path d="m94.56 253.55c-.4 45.14 17.84 86.02 47.48 115.41l-22.75 49.095-44.1 17.755c-46.36-46.11-75.09-109.92-75.19-180.44-.1-70.03 28.33-133.76 74.34-180.03l66.84 66.84c-28.46 28.7-46.24 68.03-46.62 111.37z" fill="url(#SVGID_3_)"/><path d="m94.56 253.55c-.4 45.14 17.84 86.02 47.48 115.41l-36.55 36.56c-37.94-37.68-61.71-89.61-62.62-147.09-.95-59.79 22.62-114 61.46-153.1l36.85 36.85c-28.46 28.7-46.24 68.03-46.62 111.37z" fill="url(#SVGID_4_)"/><path d="m368.091 369.091c-29.238 28.971-69.603 46.638-114.129 46.356-43.644-.276-83.144-17.983-111.91-46.498l-66.856 66.856c45.931 45.678 109.161 73.98 179.004 74.195 69.986.215 133.635-28.565 179.94-74.858l-19.108-40.856z" fill="url(#SVGID_5_)"/><path d="m368.088 369.087c-29.24 28.972-69.602 46.643-114.127 46.363-43.643-.276-83.143-17.983-111.909-46.501l-36.562 36.562c38.353 38.101 91.181 61.649 149.51 61.649 58.331 0 111.157-23.549 149.511-61.649z" fill="url(#SVGID_6_)"/><path d="m510 228.812c0-5.027-4.076-9.103-9.103-9.103h-237.36c-4.503 0-8.154 3.651-8.154 8.154v78.481c0 4.503 3.651 8.154 8.154 8.154h115.921c11.94 0 19.354 13.03 13.213 23.269-6.855 11.428-15.1 21.901-24.486 31.216-.035.036-.059.071-.095.107l66.06 66.06c3.119-3.119 6.284-6.24 9.474-9.369 41.275-45.774 66.376-106.504 66.376-172.755z" fill="url(#SVGID_7_)"/><path d="m456.44 321.78c9.33-28.2-11.57-57.28-41.27-57.28h-159.786v41.844c0 4.503 3.651 8.154 8.154 8.154h115.921c11.94 0 19.354 13.03 13.213 23.269-6.833 11.391-15.048 21.831-24.396 31.124-.065.067-.117.131-.185.199l36.42 36.42c19.36-19.21 35.02-42.14 45.85-67.62 2.229-5.27 4.259-10.64 6.079-16.11z" fill="url(#SVGID_8_)"/></g></svg>